<svg width="20" height="20" viewBox="0 0 20 20" fill="none" xmlns="http://www.w3.org/2000/svg">
<path d="M10.1788 5.22598C7.42418 5.22598 5.2011 7.44906 5.2011 10.2036C5.2011 12.9582 7.42418 15.1813 10.1788 15.1813C12.9333 15.1813 15.1564 12.9582 15.1564 10.2036C15.1564 7.44906 12.9333 5.22598 10.1788 5.22598ZM10.1788 13.4387C8.39738 13.4387 6.94365 11.985 6.94365 10.2036C6.94365 8.42226 8.39738 6.96853 10.1788 6.96853C11.9601 6.96853 13.4139 8.42226 13.4139 10.2036C13.4139 11.985 11.9601 13.4387 10.1788 13.4387ZM15.3603 3.86205C14.7171 3.86205 14.1978 4.38141 14.1978 5.02455C14.1978 5.66769 14.7171 6.18705 15.3603 6.18705C16.0034 6.18705 16.5228 5.67011 16.5228 5.02455C16.523 4.87183 16.493 4.72058 16.4347 4.57945C16.3763 4.43832 16.2907 4.31009 16.1827 4.20211C16.0747 4.09412 15.9465 4.0085 15.8054 3.95015C15.6642 3.89179 15.513 3.86185 15.3603 3.86205ZM19.8817 10.2036C19.8817 8.86396 19.8938 7.53643 19.8186 6.19919C19.7433 4.64595 19.389 3.26745 18.2532 2.13164C17.115 0.993405 15.7389 0.641499 14.1856 0.566264C12.846 0.491029 11.5184 0.503163 10.1812 0.503163C8.84151 0.503163 7.51398 0.491029 6.17673 0.566264C4.62349 0.641499 3.24499 0.995832 2.10918 2.13164C0.970944 3.26987 0.619038 4.64595 0.543803 6.19919C0.468568 7.53886 0.480702 8.86639 0.480702 10.2036C0.480702 11.5409 0.468568 12.8708 0.543803 14.2081C0.619038 15.7613 0.973371 17.1398 2.10918 18.2756C3.24741 19.4139 4.62349 19.7658 6.17673 19.841C7.5164 19.9162 8.84394 19.9041 10.1812 19.9041C11.5209 19.9041 12.8484 19.9162 14.1856 19.841C15.7389 19.7658 17.1174 19.4114 18.2532 18.2756C19.3914 17.1374 19.7433 15.7613 19.8186 14.2081C19.8962 12.8708 19.8817 11.5433 19.8817 10.2036ZM17.746 15.9264C17.5688 16.3681 17.3552 16.6981 17.013 17.0379C16.6708 17.3801 16.3432 17.5937 15.9015 17.7708C14.6249 18.2781 11.5937 18.164 10.1788 18.164C8.76385 18.164 5.73018 18.2781 4.4536 17.7733C4.0119 17.5961 3.68184 17.3825 3.34207 17.0403C2.99987 16.6981 2.7863 16.3705 2.60913 15.9288C2.10433 14.6498 2.21839 11.6185 2.21839 10.2036C2.21839 8.78873 2.10433 5.75506 2.60913 4.47849C2.7863 4.03678 2.99987 3.70672 3.34207 3.36695C3.68426 3.02718 4.0119 2.81118 4.4536 2.63401C5.73018 2.12921 8.76385 2.24328 10.1788 2.24328C11.5937 2.24328 14.6273 2.12921 15.9039 2.63401C16.3456 2.81118 16.6757 3.02475 17.0154 3.36695C17.3576 3.70915 17.5712 4.03678 17.7484 4.47849C18.2532 5.75506 18.1391 8.78873 18.1391 10.2036C18.1391 11.6185 18.2532 14.6498 17.746 15.9264Z" fill="white" fill-opacity="0.75"/>
</svg>
