<svg width="26" height="25" viewBox="0 0 26 25" fill="none" xmlns="http://www.w3.org/2000/svg">
<path d="M23.3038 6.10342C19.6889 0.530578 12.3087 -1.12621 6.58523 2.33798C1.01239 5.80218 -0.795014 13.333 2.8198 18.9059L3.12104 19.3577L1.9161 23.8763L6.43462 22.6713L6.88647 22.9725C8.84449 24.0269 10.9531 24.6293 13.0618 24.6293C15.321 24.6293 17.5803 24.0269 19.5383 22.8219C25.1112 19.2071 26.7679 11.8269 23.3038 6.10342ZM20.1408 17.7009C19.5383 18.6046 18.7852 19.2071 17.7309 19.3577C17.1284 19.3577 16.3754 19.659 13.363 18.454C10.8025 17.2491 8.69388 15.2911 7.1877 13.0318C6.284 11.9775 5.83215 10.6219 5.68153 9.26638C5.68153 8.06144 6.13338 7.00712 6.88647 6.25403C7.1877 5.9528 7.48894 5.80218 7.79017 5.80218H8.54326C8.84449 5.80218 9.14573 5.80218 9.29634 6.40465C9.59758 7.15774 10.3507 8.96514 10.3507 9.11576C10.5013 9.26638 10.5013 9.56761 10.3507 9.71823C10.5013 10.0195 10.3507 10.3207 10.2 10.4713C10.0494 10.6219 9.89881 10.9232 9.7482 11.0738C9.44696 11.2244 9.29634 11.5256 9.44696 11.8269C10.0494 12.7306 10.8025 13.6343 11.5556 14.3874C12.4593 15.1405 13.363 15.7429 14.4173 16.1948C14.7186 16.3454 15.0198 16.3454 15.1704 16.0442C15.321 15.7429 16.0741 14.9898 16.3754 14.6886C16.6766 14.3874 16.8272 14.3874 17.1284 14.538L19.5383 15.7429C19.8396 15.8935 20.1408 16.0442 20.2914 16.1948C20.442 16.6466 20.442 17.2491 20.1408 17.7009Z" fill="white" fill-opacity="0.75"/>
</svg>
