<svg width="24" height="22" viewBox="0 0 24 22" fill="none" xmlns="http://www.w3.org/2000/svg">
<path d="M23.7814 3.37716C22.943 3.78671 22.0423 4.06343 21.0954 4.18851C22.0724 3.54407 22.8033 2.5298 23.1518 1.33496C22.2339 1.93598 21.2293 2.35904 20.1817 2.58574C19.4771 1.75653 18.544 1.20692 17.5271 1.02223C16.5102 0.837545 15.4664 1.02812 14.5578 1.56436C13.6492 2.10061 12.9267 2.95252 12.5023 3.98784C12.078 5.02315 11.9755 6.18395 12.211 7.29001C10.351 7.18706 8.53151 6.65416 6.8705 5.72587C5.20949 4.79759 3.7441 3.49467 2.56944 1.90168C2.1678 2.66543 1.93685 3.55094 1.93685 4.49401C1.9364 5.34299 2.12606 6.17896 2.48899 6.92776C2.85193 7.67656 3.37691 8.31503 4.01738 8.78652C3.27461 8.76047 2.54823 8.53922 1.89869 8.1412V8.20762C1.89862 9.39834 2.27226 10.5524 2.95621 11.474C3.64017 12.3957 4.59231 13.028 5.65108 13.2639C4.96204 13.4694 4.23963 13.4997 3.53842 13.3524C3.83714 14.377 4.41902 15.2729 5.20261 15.9148C5.98619 16.5567 6.93225 16.9124 7.90833 16.9321C6.25137 18.366 4.20504 19.1438 2.09851 19.1403C1.72536 19.1405 1.35253 19.1164 0.981934 19.0684C3.12018 20.5839 5.60925 21.3882 8.15133 21.3851C16.7566 21.3851 21.4609 13.5284 21.4609 6.71443C21.4609 6.49305 21.4559 6.26946 21.4468 6.04808C22.3619 5.31861 23.1517 4.41531 23.7794 3.38048L23.7814 3.37716Z" fill="white" fill-opacity="0.75"/>
</svg>
